<?xml version="1.0" encoding="utf-8"?>
<!-- Generator: Adobe Illustrator 27.0.0, SVG Export Plug-In . SVG Version: 6.00 Build 0)  -->
<svg version="1.1" id="Layer_1" xmlns="http://www.w3.org/2000/svg" xmlns:xlink="http://www.w3.org/1999/xlink" x="0px" y="0px"
	 viewBox="0 0 190.6 42.5" style="enable-background:new 0 0 190.6 42.5;" xml:space="preserve">
<style type="text/css">
	.st0{fill:#0057A7;}
	.st1{fill:#FFDC00;}
	.st2{fill:#1873BB;}
</style>
<g>
	<path class="st0" d="M19.1,7.7V2.3H2.4v5.4h5.5v16.8c0,4.2,2.9,6.4,6.6,6.4c2.1,0,3.8-0.3,3.8-0.3v-5.3c0,0-1,0.1-1.4,0.1
		c-1.5,0.1-2.9,0.2-2.9-1.3V7.7H19.1z"/>
	<g>
		<path class="st0" d="M24.5,11.4l-0.1-2.3h-5.3v9.4v12.3H25v-11c0-0.1,0.1-1.2,0.1-1.5c0-3.8,2.7-4.6,5.6-4.6
			c0.7,0,1.6,0.1,1.9,0.3V8.7C29.8,8.4,26.3,8.6,24.5,11.4z"/>
	</g>
	<path class="st0" d="M43.8,8.1c-7.1,0-11.8,4.6-11.8,11.4c0,6.9,4.6,11.3,11.6,11.3c3,0,5.1-1.2,6.5-2.3l0.1,1.9h5.4V19.6
		C55.6,12.7,50.9,8.1,43.8,8.1z M49.9,21c-0.5,2.6-3,4.6-5.9,4.6c-3.6,0-5.9-2.4-5.9-6c0-3.7,2.3-6,5.9-6c2.9,0,5.9,1.6,5.9,6
		C50,19.7,49.9,20.8,49.9,21z"/>
	<path class="st1" d="M176.3,8.1c-7.1,0-11.8,4.6-11.8,11.4c0,6.9,4.6,11.3,11.6,11.3c3,0,5.1-1.2,6.5-2.3l0.1,1.9h5.4V19.6
		C188.1,12.7,183.4,8.1,176.3,8.1z M182.4,21c-0.5,2.6-3,4.6-5.9,4.6c-3.6,0-5.9-2.4-5.9-6c0-3.7,2.3-6,5.9-6c2.9,0,5.9,1.6,5.9,6
		C182.4,19.7,182.4,20.8,182.4,21z"/>
	<polygon class="st0" points="70.4,9.2 66.5,19.6 65,24.3 63.6,19.6 59.7,9.2 53.3,9.2 62.3,30.9 67.7,30.9 76.8,9.2 	"/>
	<path class="st0" d="M97.2,20c0-6.8-4.6-11.4-11.6-11.4c-7.1,0-11.8,4.6-11.8,11.4c0,6.8,4.7,11.4,11.8,11.4
		c5.5,0,9.5-2.8,11.1-7.2H90c-0.9,1.2-2.2,1.8-4.4,1.8c-2.7,0-4.9-1.5-5.6-3.8l17,0C97.2,21.5,97.2,20.8,97.2,20z M85.6,14
		c2.2,0,4.6,1,5.5,3.7h-11C80.9,15.4,83,14,85.6,14z"/>
	<path class="st1" d="M133.2,19.7v20.5h5.4l0.1-11.5c1.4,1.1,3.5,2.3,6.5,2.3c7.1,0,11.6-4.4,11.6-11.3c0-6.8-4.7-11.4-11.8-11.4
		C138,8.3,133.2,12.9,133.2,19.7z M138.9,19.7c0-4.4,3.1-6,5.9-6c3.6,0,5.9,2.4,5.9,6c0,3.7-2.3,6-5.9,6c-2.9,0-5.4-2-5.9-4.6
		C138.9,20.9,138.9,19.8,138.9,19.7z"/>
	<path class="st1" d="M163.6,9.4h-6v21.7h6V9.4z"/>
	<path class="st0" d="M124.8,18.5c0.7,2.4-0.7,4.9-3.1,5.6c-2.4,0.7-4.9-0.7-5.6-3.1c-0.7-2.4,0.7-4.9,3.1-5.6
		C121.6,14.7,124.1,16.1,124.8,18.5z"/>
	<g>
		<path class="st1" d="M131.7,17.9c-0.5-3.1-2.2-5.7-4.5-7.3c-0.1,0.4-0.5,1.3-0.8,2.5c-0.3,1.2-0.2,2.4,0.4,3.5
			c0.2,0.4,0.4,0.8,0.5,1.2c0.5,1.9,0.3,3.8-0.6,5.3c0,0,0,0,0,0l0,0c-0.9,1.6-2.3,2.8-4.1,3.3c-0.6,0.2-1.3,0.3-2,0.3
			c-3.1,0-5.8-2.1-6.7-5c-0.5-1.8-0.3-3.7,0.6-5.3c0.9-1.6,2.4-2.8,4.2-3.4c0.6-0.2,1.3-0.3,2-0.3c0.4,0,0.8,0,1.2,0.1
			c1.4,0.3,2.8,0,3.9-0.9c0.5-0.4,1-0.9,1.5-1.5c-1.9-1.4-4.2-2.1-6.6-2.1c-1.5,0-3.1,0.3-4.7,1c-4.7,2.1-7.4,7.2-6.5,12.2
			c1,5.7,5.9,9.5,11.2,9.5c1.3,0,2.7-0.2,4-0.7C129.5,28.6,132.6,23.3,131.7,17.9z"/>
		<polygon class="st1" points="126.6,23.2 126.6,23.2 126.6,23.2 		"/>
	</g>
	<path class="st0" d="M160.7,2.1c-2,0-3.3,1.3-3.3,3.2c0,1.9,1.3,3.2,3.3,3.2c2,0,3.3-1.3,3.3-3.2C163.9,3.4,162.6,2.1,160.7,2.1z"
		/>
	<path class="st1" d="M104.8,24V2.3h-6.2v22.2c0,4.2,2.9,6.4,6.6,6.4c2.1,0,3.9-0.3,3.9-0.3v-5.3c0,0-1.1,0.1-1.4,0.1
		C106.2,25.5,104.8,25.5,104.8,24z"/>
	<g>
		<path class="st0" d="M142.8,38.8l1.1-0.7c0.2,0.5,0.6,0.8,1.2,0.8c0.5,0,0.8-0.2,0.8-0.5c0-0.2-0.1-0.3-0.3-0.4
			c-0.2-0.1-0.5-0.2-0.9-0.3c-0.5-0.1-0.8-0.3-1.2-0.5c-0.3-0.3-0.5-0.7-0.5-1.2c0-0.5,0.2-1,0.6-1.3c0.4-0.3,0.8-0.5,1.4-0.5
			c0.9,0,1.7,0.5,2.1,1.3l-1.1,0.6c-0.2-0.4-0.5-0.7-1-0.7c-0.4,0-0.6,0.2-0.6,0.4c0,0.1,0.1,0.3,0.2,0.4c0.1,0.1,0.4,0.2,0.8,0.3
			l0.5,0.2c0.1,0,0.3,0.1,0.5,0.2c0.2,0.1,0.3,0.2,0.4,0.3c0.2,0.2,0.4,0.6,0.4,1.1c0,0.6-0.2,1-0.6,1.3c-0.4,0.3-0.9,0.5-1.5,0.5
			C144,40.2,143.2,39.7,142.8,38.8z"/>
		<path class="st0" d="M151.7,40.2c-0.8,0-1.5-0.3-2.1-0.9c-0.6-0.6-0.9-1.3-0.9-2.1c0-0.8,0.3-1.6,0.9-2.1c0.6-0.6,1.3-0.9,2.1-0.9
			c0.8,0,1.5,0.3,2.1,0.9c0.6,0.6,0.9,1.3,0.9,2.1c0,0.8-0.3,1.6-0.9,2.1C153.2,39.9,152.5,40.2,151.7,40.2z M151.7,38.9
			c0.5,0,0.9-0.2,1.2-0.5c0.3-0.3,0.5-0.7,0.5-1.2c0-0.5-0.2-0.9-0.5-1.2c-0.3-0.3-0.7-0.5-1.2-0.5c-0.5,0-0.9,0.2-1.2,0.5
			c-0.3,0.3-0.5,0.7-0.5,1.2c0,0.5,0.2,0.9,0.5,1.2C150.8,38.8,151.2,38.9,151.7,38.9z"/>
		<path class="st0" d="M157.7,38.8h2.1v1.3h-3.4v-5.8h1.3V38.8z"/>
		<path class="st0" d="M161.2,34.3h1.3v3.8c0,0.5,0.3,0.8,0.9,0.8c0.6,0,0.9-0.3,0.9-0.8v-3.8h1.3v3.9c0,0.6-0.2,1.1-0.6,1.4
			c-0.4,0.4-0.9,0.5-1.6,0.5c-0.6,0-1.2-0.2-1.6-0.5c-0.4-0.4-0.6-0.8-0.6-1.4V34.3z"/>
		<path class="st0" d="M171.4,34.3v1.3h-1.5v4.5h-1.3v-4.5h-1.5v-1.3H171.4z"/>
		<path class="st0" d="M173,34.3h1.3v5.8H173V34.3z"/>
		<path class="st0" d="M179,40.2c-0.8,0-1.5-0.3-2.1-0.9c-0.6-0.6-0.9-1.3-0.9-2.1c0-0.8,0.3-1.6,0.9-2.1c0.6-0.6,1.3-0.9,2.1-0.9
			c0.8,0,1.5,0.3,2.1,0.9c0.6,0.6,0.9,1.3,0.9,2.1c0,0.8-0.3,1.6-0.9,2.1C180.6,39.9,179.8,40.2,179,40.2z M179,38.9
			c0.5,0,0.9-0.2,1.2-0.5c0.3-0.3,0.5-0.7,0.5-1.2c0-0.5-0.2-0.9-0.5-1.2c-0.3-0.3-0.7-0.5-1.2-0.5c-0.5,0-0.9,0.2-1.2,0.5
			c-0.3,0.3-0.5,0.7-0.5,1.2c0,0.5,0.2,0.9,0.5,1.2C178.1,38.8,178.5,38.9,179,38.9z"/>
		<path class="st0" d="M186.9,34.3h1.3v5.8h-1L185,37v3.1h-1.3v-5.8h1l2.2,3.1V34.3z"/>
	</g>
	<g>
		<g>
			<polygon class="st2" points="124.9,6.8 132.9,3.3 130.9,8.2 127.1,7.3 			"/>
			<polygon class="st0" points="127.1,7.3 131.5,4.4 128.2,7.6 127.9,9.1 			"/>
		</g>
	</g>
</g>
</svg>
